<?xml version="1.0" standalone="no"?>
<!DOCTYPE svg PUBLIC "-//W3C//DTD SVG 20010904//EN"
 "http://www.w3.org/TR/2001/REC-SVG-20010904/DTD/svg10.dtd">
<svg version="1.0" xmlns="http://www.w3.org/2000/svg"
 width="316.000000pt" height="266.000000pt" viewBox="0 0 316.000000 266.000000"
 preserveAspectRatio="xMidYMid meet">

<g transform="translate(0.000000,266.000000) scale(0.100000,-0.100000)"
fill="#000000" stroke="none">
<path d="M0 1480 l0 -690 165 0 165 0 0 275 0 275 245 0 245 0 0 -275 0 -275
165 0 165 0 0 275 0 275 240 0 240 0 0 130 0 130 -240 0 -240 0 0 150 0 150
270 0 270 0 0 -555 0 -555 165 0 165 0 1 423 0 422 68 -195 c37 -107 103 -297
145 -422 l78 -228 108 0 108 0 34 98 c20 53 87 242 149 420 l114 323 3 -421 2
-420 165 0 165 0 0 690 0 690 -215 0 -214 0 -153 -465 c-83 -256 -155 -465
-158 -465 -5 0 -49 136 -257 793 l-44 137 -650 0 -649 0 0 -285 0 -285 -245 0
-245 0 0 285 0 285 -165 0 -165 0 0 -690z"/>
<path d="M30 125 c0 -78 3 -95 15 -95 11 0 15 11 15 40 l0 40 40 0 c29 0 40 4
40 15 0 11 -11 15 -40 15 -36 0 -40 3 -40 25 0 23 4 25 45 25 33 0 45 4 45 15
0 12 -13 15 -60 15 l-60 0 0 -95z"/>
<path d="M1010 205 c0 -8 7 -15 15 -15 8 0 15 7 15 15 0 8 -7 15 -15 15 -8 0
-15 -7 -15 -15z"/>
<path d="M1313 204 c-3 -10 -2 -30 4 -45 9 -23 8 -31 -8 -45 -48 -43 -9 -83
79 -82 57 1 61 2 48 17 -9 10 -11 23 -6 36 12 30 12 35 -5 35 -8 0 -15 -8 -15
-17 0 -15 -3 -14 -22 4 -20 21 -21 23 -5 41 32 35 14 72 -35 72 -17 0 -31 -7
-35 -16z m61 -13 c3 -4 0 -16 -7 -25 -12 -16 -14 -16 -26 -2 -7 8 -10 20 -6
26 8 12 32 13 39 1z m0 -105 c15 -23 14 -25 -5 -31 -26 -8 -54 17 -46 39 9 23
32 19 51 -8z"/>
<path d="M1560 200 c-30 -30 -28 -119 3 -148 27 -26 73 -29 105 -6 25 17 29
44 7 44 -8 0 -15 -4 -15 -10 0 -5 -9 -14 -21 -20 -16 -9 -26 -8 -45 5 -19 12
-24 24 -24 60 0 68 39 96 80 55 24 -24 40 -26 40 -6 0 43 -95 61 -130 26z"/>
<path d="M680 190 c0 -11 -7 -20 -15 -20 -8 0 -15 -7 -15 -15 0 -8 7 -15 14
-15 11 0 16 -15 18 -52 3 -46 6 -53 26 -56 25 -4 30 13 7 22 -21 8 -21 86 0
86 8 0 15 7 15 15 0 8 -7 15 -15 15 -8 0 -15 9 -15 20 0 11 -4 20 -10 20 -5 0
-10 -9 -10 -20z"/>
<path d="M2190 190 c0 -11 -7 -20 -15 -20 -8 0 -15 -5 -15 -10 0 -6 7 -13 15
-16 10 -4 15 -21 15 -54 0 -40 4 -50 21 -55 22 -7 43 5 22 12 -15 6 -18 93 -3
93 6 0 10 7 10 15 0 8 -4 15 -9 15 -5 0 -11 9 -14 20 -3 11 -10 20 -16 20 -6
0 -11 -9 -11 -20z"/>
<path d="M2690 190 c0 -11 -4 -20 -10 -20 -5 0 -10 -7 -10 -15 0 -8 5 -15 10
-15 6 0 10 -22 10 -49 0 -35 4 -51 16 -55 24 -9 44 -7 44 4 0 6 -7 10 -15 10
-22 0 -20 79 3 96 16 12 16 13 0 19 -10 4 -18 16 -18 26 0 10 -7 19 -15 19 -8
0 -15 -9 -15 -20z"/>
<path d="M185 156 c-27 -20 -27 -92 0 -112 24 -18 66 -18 91 0 27 20 10 32
-22 16 -18 -10 -30 -11 -42 -4 -34 22 -25 34 27 34 47 0 51 2 51 23 0 48 -63
74 -105 43z m63 -18 c20 -20 14 -28 -23 -28 -19 0 -35 4 -35 8 0 12 22 32 35
32 6 0 16 -5 23 -12z"/>
<path d="M320 100 c0 -56 3 -70 15 -70 11 0 15 11 15 39 0 52 8 71 31 71 10 0
19 7 19 15 0 18 -5 18 -31 5 -13 -7 -19 -7 -19 0 0 5 -7 10 -15 10 -12 0 -15
-14 -15 -70z"/>
<path d="M420 100 c0 -54 3 -70 14 -70 11 0 16 15 18 53 3 45 6 52 26 55 12 2
22 10 22 18 0 17 -22 18 -38 2 -9 -9 -12 -9 -12 0 0 7 -7 12 -15 12 -12 0 -15
-14 -15 -70z"/>
<path d="M530 150 c-24 -24 -26 -67 -4 -98 18 -27 74 -30 99 -6 22 23 10 30
-21 14 -18 -10 -30 -11 -42 -4 -34 22 -25 34 27 34 44 0 51 3 51 20 0 28 -35
60 -65 60 -14 0 -34 -9 -45 -20z m68 -12 c20 -20 14 -28 -23 -28 -19 0 -35 4
-35 8 0 12 22 32 35 32 6 0 16 -5 23 -12z"/>
<path d="M770 150 c-26 -26 -26 -81 -2 -103 24 -22 76 -22 97 -1 22 23 10 30
-21 14 -18 -10 -30 -11 -42 -4 -34 22 -25 34 27 34 44 0 51 3 51 20 0 28 -35
60 -65 60 -14 0 -34 -9 -45 -20z m68 -12 c20 -20 14 -28 -23 -28 -19 0 -35 4
-35 8 0 12 22 32 35 32 6 0 16 -5 23 -12z"/>
<path d="M910 100 c0 -56 3 -70 15 -70 11 0 15 12 15 50 0 45 3 52 25 60 26
10 34 30 12 30 -7 0 -18 -5 -25 -12 -9 -9 -12 -9 -12 0 0 7 -7 12 -15 12 -12
0 -15 -14 -15 -70z"/>
<path d="M1010 100 c0 -56 3 -70 15 -70 12 0 15 14 15 70 0 56 -3 70 -15 70
-12 0 -15 -14 -15 -70z"/>
<path d="M1090 155 c-18 -22 -4 -31 24 -16 26 14 46 8 46 -14 0 -9 -14 -15
-36 -17 -44 -4 -65 -29 -48 -55 8 -13 26 -18 67 -19 l55 -1 -5 56 c-3 34 -12
61 -21 69 -22 17 -67 15 -82 -3z m70 -79 c0 -16 -34 -31 -50 -21 -22 14 -10
35 20 35 19 0 30 -5 30 -14z"/>
<path d="M1737 152 c-23 -25 -22 -85 1 -105 45 -41 112 -8 112 55 0 57 -76 91
-113 50z m71 -14 c17 -17 15 -63 -3 -78 -8 -6 -23 -9 -35 -5 -35 11 -23 95 15
95 6 0 16 -5 23 -12z"/>
<path d="M1880 98 c0 -54 3 -68 15 -68 11 0 15 11 15 43 0 50 19 83 44 74 12
-5 16 -20 16 -62 0 -42 3 -55 15 -55 19 0 22 112 3 128 -7 6 -34 10 -60 10
l-48 -1 0 -69z"/>
<path d="M2050 155 c-20 -24 -7 -49 30 -61 19 -7 35 -18 35 -25 0 -18 -35 -25
-45 -9 -4 7 -16 10 -25 8 -18 -3 -18 -4 -1 -20 24 -25 82 -24 96 1 15 28 2 50
-34 59 -33 9 -42 35 -13 40 9 2 17 -1 17 -7 0 -6 7 -11 15 -11 8 0 15 6 15 14
0 27 -69 36 -90 11z"/>
<path d="M2270 100 c0 -56 3 -70 15 -70 11 0 15 11 15 39 0 52 8 71 31 71 10
0 19 7 19 15 0 18 -5 18 -31 5 -13 -7 -19 -7 -19 0 0 5 -7 10 -15 10 -12 0
-15 -14 -15 -70z"/>
<path d="M2370 119 c0 -75 10 -88 70 -87 l50 1 0 69 c0 54 -3 68 -15 68 -11 0
-15 -13 -15 -54 0 -46 -3 -56 -20 -61 -32 -10 -40 3 -40 61 0 41 -4 54 -15 54
-11 0 -15 -12 -15 -51z"/>
<path d="M2545 156 c-14 -10 -20 -26 -20 -56 0 -30 6 -46 20 -56 27 -20 69
-17 90 6 16 17 16 20 2 20 -9 0 -19 -4 -22 -10 -11 -17 -44 -11 -55 11 -22 40
15 98 44 69 5 -5 19 -10 30 -10 18 0 19 1 1 20 -21 23 -63 26 -90 6z"/>
<path d="M2788 160 c-22 -13 -31 -60 -19 -93 19 -50 100 -49 121 2 28 68 -39
127 -102 91z m66 -26 c28 -27 12 -84 -24 -84 -36 0 -52 57 -24 84 19 20 29 20
48 0z"/>
<path d="M2930 100 c0 -56 3 -70 15 -70 11 0 15 12 15 50 0 45 3 52 27 61 19
7 23 13 15 21 -8 8 -15 8 -27 -2 -10 -8 -15 -9 -15 -1 0 6 -7 11 -15 11 -12 0
-15 -14 -15 -70z"/>
<path d="M3035 150 c-20 -22 -6 -27 24 -8 22 14 51 4 51 -17 0 -10 -10 -15
-29 -15 -47 0 -61 -10 -61 -41 0 -23 6 -30 27 -35 14 -4 34 -2 44 4 12 8 20 8
24 2 3 -6 12 -10 19 -10 18 0 9 99 -12 123 -20 23 -65 22 -87 -3z m75 -68 c0
-14 -23 -32 -42 -32 -11 0 -18 7 -18 20 0 16 7 20 30 20 17 0 30 -4 30 -8z"/>
</g>
</svg>
